<?xml version="1.0" encoding="UTF-8" standalone="no"?>
<!-- icon666.com - MILLIONS vector ICONS FREE -->

<svg
   version="1.1"
   id="Layer_1"
   x="0px"
   y="0px"
   viewBox="0 0 512.002 512.002"
   style="enable-background:new 0 0 512.002 512.002;"
   xml:space="preserve"
   sodipodi:docname="valve_exception.svg"
   inkscape:version="1.3.2 (091e20e, 2023-11-25, custom)"
   xmlns:inkscape="http://www.inkscape.org/namespaces/inkscape"
   xmlns:sodipodi="http://sodipodi.sourceforge.net/DTD/sodipodi-0.dtd"
   xmlns="http://www.w3.org/2000/svg"
   xmlns:svg="http://www.w3.org/2000/svg"><defs
     id="defs12" /><sodipodi:namedview
     id="namedview12"
     pagecolor="#ffffff"
     bordercolor="#000000"
     borderopacity="0.25"
     inkscape:showpageshadow="2"
     inkscape:pageopacity="0.0"
     inkscape:pagecheckerboard="0"
     inkscape:deskcolor="#d1d1d1"
     showgrid="false"
     inkscape:zoom="1.1614736"
     inkscape:cx="224.71454"
     inkscape:cy="227.72796"
     inkscape:window-width="1920"
     inkscape:window-height="1017"
     inkscape:window-x="1912"
     inkscape:window-y="-8"
     inkscape:window-maximized="1"
     inkscape:current-layer="Layer_1" /><polygon
     style="fill:#F2F2F2;"
     points="316.242,196.931 316.242,231.373 195.765,231.373 195.765,196.931 230.963,196.931 281.044,196.931 "
     id="polygon1" /><polygon
     style="fill:#B3B3B3;"
     points="281.044,157.965 281.044,196.931 230.963,196.931 230.963,157.965 256.004,157.965 "
     id="polygon2" /><g
     id="g3"
     style="opacity:1;stroke:none;stroke-opacity:1;fill:#ffd800;fill-opacity:1"><path
       style="fill:#ffd800;stroke:none;stroke-opacity:1;fill-opacity:1"
       d="M256.004,157.953h-147.04v-32.682c0-11.469,11.492-19.371,22.205-15.26l59.293,22.772 L256.004,157.953z"
       id="path2" /><path
       style="fill:#ffd800;stroke:none;stroke-opacity:1;fill-opacity:1"
       d="M403.043,125.271v32.682h-147.04l65.553-25.17l59.281-22.772 C391.551,105.9,403.043,113.802,403.043,125.271z"
       id="path3" /><polygon
       style="fill:#ffd800;stroke:none;stroke-opacity:1;fill-opacity:1"
       points="321.557,101.483 321.557,132.783 256.004,157.953 190.462,132.783 190.462,101.483 "
       id="polygon3" /></g><g
     id="g4"><polygon
       style="fill:#CCCCCC;"
       points="381.345,271.336 381.345,370.552 381.333,370.552 352.407,370.552 352.407,271.336 381.333,271.336 "
       id="polygon4" /><rect
       x="130.658"
       y="271.332"
       style="fill:#CCCCCC;"
       width="28.938"
       height="99.216"
       id="rect4" /></g><g
     id="g5"><path
       style="fill:#E6E6E6;"
       d="M130.66,370.552v16.831c0,10.642-8.622,19.264-19.264,19.264s-19.264-8.622-19.264-19.264v-16.831 v-99.216v-16.831c0-10.63,8.622-19.264,19.264-19.264c5.327,0,10.134,2.161,13.619,5.646c3.496,3.484,5.646,8.303,5.646,13.619 v16.831V370.552z"
       id="path4" /><path
       style="fill:#E6E6E6;"
       d="M419.874,370.552v16.831c0,10.642-8.622,19.264-19.264,19.264c-10.642,0-19.264-8.622-19.264-19.264 v-16.831v-99.216v-16.831c0-10.63,8.622-19.264,19.264-19.264c5.327,0,10.134,2.161,13.619,5.646 c3.496,3.484,5.646,8.303,5.646,13.619v16.831V370.552z"
       id="path5" /></g><path
     style="fill:#B3B3B3;"
     d="M352.407,370.552v23.115c0,9.307-7.547,16.855-16.855,16.855H176.453 c-9.307,0-16.855-7.548-16.855-16.855v-23.115v-99.216v-23.115c0-9.307,7.547-16.855,16.855-16.855h79.55h79.55 c9.307,0,16.855,7.547,16.855,16.855v23.115V370.552z"
     id="path6" /><g
     id="g6"><polygon
       style="fill:#F2F2F2;"
       points="503.144,271.336 503.144,370.552 419.885,370.552 419.874,370.552 419.874,271.336 419.885,271.336 "
       id="polygon6" /><rect
       x="8.861"
       y="271.332"
       style="fill:#F2F2F2;"
       width="83.27"
       height="99.216"
       id="rect6" /></g><g
     id="g8"><rect
       x="352.405"
       y="312.672"
       style="fill:#B3B3B3;"
       width="28.938"
       height="57.876"
       id="rect7" /><rect
       x="130.658"
       y="312.672"
       style="fill:#B3B3B3;"
       width="28.938"
       height="57.876"
       id="rect8" /></g><g
     id="g9"><path
       style="fill:#CCCCCC;"
       d="M130.66,329.508v57.876c0,10.642-8.622,19.264-19.264,19.264s-19.264-8.622-19.264-19.264v-57.876 c0,10.642,8.622,19.264,19.264,19.264S130.66,340.15,130.66,329.508z"
       id="path8" /><path
       style="fill:#CCCCCC;"
       d="M419.874,329.508v57.876c0,10.642-8.622,19.264-19.264,19.264c-10.642,0-19.264-8.622-19.264-19.264 v-57.876c0,10.642,8.622,19.264,19.264,19.264C411.251,348.772,419.874,340.15,419.874,329.508z"
       id="path9" /></g><path
     style="fill:#999999;"
     d="M352.407,335.791v57.876c0,9.307-7.547,16.855-16.855,16.855H176.453 c-9.307,0-16.855-7.548-16.855-16.855v-57.876c0,9.307,7.547,16.855,16.855,16.855h159.099 C344.859,352.646,352.407,345.099,352.407,335.791z"
     id="path10" /><g
     id="g11"><rect
       x="419.871"
       y="312.672"
       style="fill:#E6E6E6;"
       width="83.27"
       height="57.876"
       id="rect10" /><rect
       x="8.861"
       y="312.672"
       style="fill:#E6E6E6;"
       width="83.27"
       height="57.876"
       id="rect11" /></g><path
     style="fill:#333333;"
     d="M503.141,262.48h-74.405v-7.971c0-15.508-12.617-28.125-28.125-28.125 c-15.508,0-28.125,12.617-28.125,28.125v7.973h-11.223V248.22c0-14.177-11.534-25.712-25.712-25.712h-10.454v-25.575 c0-4.892-3.966-8.859-8.859-8.859h-26.342V166.82l113.151-0.005c4.892,0,8.859-3.966,8.859-8.859V125.27 c0-8.305-4.087-16.071-10.931-20.774c-6.845-4.703-15.559-5.734-23.313-2.756l-47.25,18.148v-18.409 c0-4.892-3.966-8.859-8.859-8.859H190.459c-4.892,0-8.859,3.966-8.859,8.859v18.41l-47.255-18.149 c-7.753-2.979-16.469-1.948-23.313,2.756c-6.845,4.703-10.931,12.469-10.931,20.775v32.687c0,4.892,3.966,8.859,8.859,8.859 l113.151,0.005v21.255h-26.342c-4.892,0-8.859,3.966-8.859,8.859v25.575h-10.454c-14.177,0-25.712,11.535-25.712,25.712v14.261 h-11.224v-7.973c0-15.508-12.617-28.125-28.125-28.125S83.27,239,83.27,254.509v7.971H8.859c-4.892,0-8.859,3.966-8.859,8.859 v99.216c0,4.892,3.966,8.859,8.859,8.859H83.27v7.968c0,15.508,12.617,28.125,28.125,28.125s28.125-12.617,28.125-28.125v-7.966 h11.224v14.254c0,14.177,11.534,25.712,25.712,25.712h159.096c14.177,0,25.712-11.534,25.712-25.712v-14.254h11.223v7.966 c0,15.508,12.617,28.125,28.125,28.125s28.125-12.617,28.125-28.125v-7.968h74.405c4.892,0,8.859-3.966,8.859-8.859v-99.216 C512,266.447,508.034,262.48,503.141,262.48z M384.015,118.28c2.34-0.899,4.863-0.6,6.927,0.819 c2.065,1.419,3.248,3.667,3.248,6.173v23.828h-90.415L384.015,118.28z M199.317,110.338h113.378v16.355l-56.691,21.774 l-56.686-21.772L199.317,110.338L199.317,110.338z M117.819,125.27c0-2.504,1.183-4.754,3.248-6.173 c2.065-1.419,4.589-1.716,6.926-0.819l80.241,30.819h-90.415V125.27z M239.828,166.82h32.353v21.255h-32.353V166.82z M204.628,205.792h26.342h50.07h26.342v16.717H204.628V205.792z M17.717,361.696v-81.499H83.27v81.499H17.717z M121.804,387.38 c0,5.739-4.669,10.408-10.408,10.408c-5.739,0-10.408-4.669-10.408-10.408V254.509c0-5.739,4.669-10.408,10.408-10.408 c5.739,0,10.408,4.669,10.408,10.408C121.804,254.509,121.804,387.38,121.804,387.38z M139.521,361.697v-81.499h11.224v81.499 H139.521z M343.546,393.669c0,4.408-3.587,7.995-7.995,7.995H176.456c-4.408,0-7.995-3.586-7.995-7.995V248.22 c0-4.408,3.586-7.995,7.995-7.995h159.096c4.408,0,7.995,3.587,7.995,7.995v145.449H343.546z M361.263,361.697v-81.499h11.223 v81.499H361.263z M411.02,387.38c0,5.739-4.669,10.408-10.408,10.408s-10.408-4.669-10.408-10.408V254.509 c0-5.739,4.669-10.408,10.408-10.408s10.408,4.669,10.408,10.408V387.38z M494.283,361.696h-65.546v-81.499h65.546V361.696z"
     id="path11" /><path
     style="fill:none;fill-rule:evenodd;stroke:#ffd800;stroke-width:15;stroke-linecap:butt;stroke-linejoin:miter;stroke-opacity:1;stroke-dasharray:none;fill-opacity:1"
     d="m 182.03163,324.49117 148.54755,-0.6088"
     id="path12"
     inkscape:connector-type="polyline"
     inkscape:connector-curvature="0" /></svg>
